<?xml version="1.0" encoding="UTF-8"?>
<svg width="86px" height="86px" viewBox="0 0 86 86" version="1.1" xmlns="http://www.w3.org/2000/svg" xmlns:xlink="http://www.w3.org/1999/xlink">
    <title>ED19B55F-577B-4F9D-A221-8437A5528D5D</title>
    <defs>
        <rect id="path-1" x="0" y="0" width="66.2838" height="67.881"></rect>
        <linearGradient x1="39.7856303%" y1="72.403225%" x2="69.5248505%" y2="11.949147%" id="linearGradient-3">
            <stop stop-color="#AECEF2" offset="0%"></stop>
            <stop stop-color="#FFFFFF" offset="100%"></stop>
        </linearGradient>
        <linearGradient x1="41.6787244%" y1="114.308201%" x2="63.5960138%" y2="22.5714179%" id="linearGradient-4">
            <stop stop-color="#D8E2EC" offset="0%"></stop>
            <stop stop-color="#E1EFFF" offset="100%"></stop>
        </linearGradient>
        <linearGradient x1="48.3461903%" y1="68.1933593%" x2="54.3578974%" y2="17.1274983%" id="linearGradient-5">
            <stop stop-color="#CACAD5" offset="1.1%"></stop>
            <stop stop-color="#EDEDF1" offset="100%"></stop>
        </linearGradient>
        <linearGradient x1="10.7600049%" y1="131.87394%" x2="76.4412716%" y2="31.5435999%" id="linearGradient-6">
            <stop stop-color="#E8F3FF" offset="0%"></stop>
            <stop stop-color="#CAD9EA" offset="100%"></stop>
        </linearGradient>
        <linearGradient x1="23.9260362%" y1="89.4313944%" x2="59.70151%" y2="14.8881515%" id="linearGradient-7">
            <stop stop-color="#B9CCE2" offset="0%"></stop>
            <stop stop-color="#EFF6FD" offset="100%"></stop>
        </linearGradient>
        <linearGradient x1="45.979013%" y1="60.4900424%" x2="52.4463375%" y2="21.6076721%" id="linearGradient-8">
            <stop stop-color="#CACAD5" offset="0%"></stop>
            <stop stop-color="#EDEDF1" offset="100%"></stop>
        </linearGradient>
        <linearGradient x1="0%" y1="82.1499752%" x2="15.7802275%" y2="61.4765176%" id="linearGradient-9">
            <stop stop-color="#CACAD5" offset="0%"></stop>
            <stop stop-color="#DCDCE3" offset="100%"></stop>
        </linearGradient>
        <linearGradient x1="18.0053345%" y1="70.1486149%" x2="336.984234%" y2="41.0920472%" id="linearGradient-10">
            <stop stop-color="#DEDEE6" offset="0%"></stop>
            <stop stop-color="#B4B4B4" offset="100%"></stop>
        </linearGradient>
    </defs>
    <g id="Style-Guide" stroke="none" stroke-width="1" fill="none" fill-rule="evenodd">
        <g id="Style-Guide-Appunto" transform="translate(-1144.000000, -4751.000000)">
            <g id="icon_spa_86x86" transform="translate(1144.000000, 4751.000000)">
                <g id="bathrobe" transform="translate(9.000000, 8.000000)">
                    <mask id="mask-2" fill="white">
                        <use xlink:href="#path-1"></use>
                    </mask>
                    <g id="Mask"></g>
                    <g mask="url(#mask-2)" fill-rule="nonzero" id="Path">
                        <g transform="translate(5.590200, 3.194400)">
                            <path d="M34.2506614,0.903759081 C34.2344794,0.399804688 33.8220582,0 33.3189904,0 L23.3811669,0 C22.8666192,0 22.4494959,0.418074864 22.4494959,0.933796188 L22.4494959,33.2794023 L19.9664376,78.0757781 C19.9522253,78.3320439 20.043879,78.5828751 20.2198603,78.7693267 C20.3958416,78.9557783 20.6406337,79.0614 20.896711,79.0614 L35.8034463,79.0614 C36.055822,79.0614 36.2974535,78.9590365 36.4730633,78.7773644 C36.6486731,78.5956924 36.7432354,78.3503872 36.7351173,78.0975667 L34.2506614,0.903759081 Z" fill="#BAD0E9"></path>
                            <path d="M56.6385713,38.0728612 L44.2733052,5.39581122 C44.1363668,5.0339295 43.7953785,4.7941898 43.4139192,4.7916 L43.4077366,4.7916 C43.0285377,4.7916 42.6875228,5.02619294 42.5466504,5.38402863 L37.6005439,17.9521248 C37.5099408,18.1823217 37.5122176,18.4395322 37.6068811,18.668035 L47.499094,42.5474176 C47.5985817,42.7877004 47.7915325,42.9753757 48.0320827,43.0658338 C48.2726329,43.156292 48.5392998,43.1414545 48.7686977,43.0248482 L56.1878573,39.2544193 C56.6150202,39.0372856 56.8100852,38.525918 56.6385713,38.0728612 L56.6385713,38.0728612 Z" fill="url(#linearGradient-3)"></path>
                            <path d="M42.1881967,43.2659429 C42.1881967,38.7560266 40.2447463,34.3359102 39.6945189,33.175048 L44.7057837,6.08115541 C44.7813499,5.67285862 44.5737014,5.26453321 44.1960911,5.07888262 L34.0624077,0.0986451411 C33.8014443,-0.0296537674 33.4949727,-0.0329652929 33.2312028,0.0896637004 C32.967433,0.212292694 32.7756251,0.447258818 32.710986,0.726933226 L26.3774339,28.1182394 C26.3547587,28.216556 26.348343,28.3178208 26.3584333,28.418143 L31.425275,78.2205178 C31.4738618,78.6981007 31.8828801,79.0614 32.371191,79.0614 L43.7715848,79.0614 C44.0373075,79.0614 44.2908833,78.9520056 44.4707763,78.7597797 C44.6506693,78.5675538 44.740436,78.3100615 44.7182925,78.0497891 C44.6929582,77.7515974 42.1881967,48.1507777 42.1881967,43.2659429 L42.1881967,43.2659429 Z" fill="url(#linearGradient-4)"></path>
                            <path d="M34.8228442,78.2209849 L29.9859178,28.41861 C29.9762854,28.3182878 29.98241,28.217023 30.0040563,28.1187063 L35.937,1.24347723 L33.7126185,0.0986451413 C33.4634966,-0.0296537674 33.1709317,-0.032965293 32.9191307,0.0896637006 C32.6673298,0.212292694 32.4842254,0.447258819 32.4225195,0.726933227 L26.3763615,28.1182394 C26.3547152,28.2165561 26.3485906,28.3178209 26.358223,28.4181431 L31.1951494,78.220518 C31.2415144,78.6979229 31.6317102,79.0614 32.0976897,79.0614 L35.7253845,79.0614 C35.259562,79.0614 34.8694265,78.6982048 34.8228442,78.2209849 L34.8228442,78.2209849 Z" fill="url(#linearGradient-5)"></path>
                            <path d="M19.1000561,17.9521248 L14.1539496,5.38402863 C14.0130772,5.02619294 13.6720623,4.7916 13.2928634,4.7916 L13.2866808,4.7916 C12.9052215,4.7941898 12.5642332,5.0339295 12.4272948,5.39581122 L0.0620287218,38.0728612 C-0.109485161,38.525918 0.0855797512,39.0372856 0.51274267,39.2544193 L7.93190232,43.0248482 C8.16130021,43.1414545 8.42796711,43.156292 8.66851731,43.0658338 C8.90906752,42.9753757 9.1020183,42.7877004 9.20150601,42.5474176 L19.0937189,18.668035 C19.1883824,18.4395322 19.1906592,18.1823217 19.1000561,17.9521248 Z" fill="url(#linearGradient-6)"></path>
                            <path d="M31.9203164,33.0955341 L24.5010946,0.724000336 C24.4372164,0.445037332 24.249781,0.210992695 23.9925606,0.08901 C23.7353402,-0.0329726954 23.4367617,-0.0294124139 23.1824825,0.0986694583 L13.2901867,5.07890542 C12.9215711,5.26455595 12.7188689,5.67288124 12.7926351,6.0811779 L17.6849936,33.1750622 C17.1478729,34.3359241 15.250716,38.7560391 15.250716,43.2659541 C15.250716,48.1507874 12.8056187,77.7515979 12.780888,78.0497896 C12.7592719,78.3100619 12.8469003,78.5675542 13.0225082,78.75978 C13.1981161,78.9520058 13.4456517,79.0614 13.7050448,79.0614 L24.8338776,79.0614 C25.2967945,79.0614 25.6888189,78.7176826 25.75247,78.2560025 L31.9351548,33.4338788 C31.950732,33.3211294 31.9457032,33.2064622 31.9203164,33.0955341 L31.9203164,33.0955341 Z" fill="url(#linearGradient-7)"></path>
                            <path d="M31.9200014,33.095534 L24.4021052,0.724000334 C24.3373774,0.445037331 24.1474492,0.210992695 23.8868078,0.0890099998 C23.6261664,-0.0329726954 23.3236169,-0.0294124138 23.0659557,0.098669458 L20.7636,1.24272303 L28.1610533,33.095534 C28.1869865,33.2064239 28.1922946,33.3210914 28.1767156,33.4338788 L21.911802,78.2560023 C21.8472718,78.7179168 21.4496777,79.0614 20.980366,79.0614 L24.7393141,79.0614 C25.2083878,79.0614 25.605626,78.7176823 25.6701237,78.2560023 L31.9350372,33.4338788 C31.9508216,33.3211293 31.9457258,33.2064621 31.9200014,33.095534 L31.9200014,33.095534 Z" fill="url(#linearGradient-8)"></path>
                            <path d="M39.4407034,31.944626 C39.1246394,31.9363237 38.8118428,32.01072 38.532885,32.1605437 L20.1497934,42.0310672 C19.5659446,42.3398474 19.1911325,42.9398375 19.1675773,43.6033748 C19.1440221,44.266912 19.4753337,44.8923088 20.0357978,45.242262 C20.5962619,45.5922152 21.299987,45.6130942 21.8799487,45.2969766 L39.93,35.6053564 C39.5971128,34.7054423 39.4407034,31.944626 39.4407034,31.944626 L39.4407034,31.944626 Z" fill="url(#linearGradient-9)"></path>
                            <path d="M36.5698475,42.0385623 L18.1690599,32.1606968 C17.8898136,32.0108148 17.5767301,31.9363665 17.2603676,31.9446185 C17.2603676,31.9446185 17.1038076,34.707334 16.7706,35.6085349 L34.8380267,45.3073641 C35.7337093,45.7809604 36.8412423,45.4378716 37.3173645,44.539321 C37.7934866,43.6407705 37.4595669,42.5238755 36.5698475,42.0390253 L36.5698475,42.0385623 Z" fill="url(#linearGradient-10)"></path>
                        </g>
                    </g>
                </g>
            </g>
        </g>
    </g>
</svg>