<?xml version="1.0" encoding="UTF-8"?>
<svg width="86px" height="86px" viewBox="0 0 86 86" version="1.1" xmlns="http://www.w3.org/2000/svg" xmlns:xlink="http://www.w3.org/1999/xlink">
    <title>6AB57A99-2869-4ACA-AA57-CB926312A2C0</title>
    <g id="Style-Guide" stroke="none" stroke-width="1" fill="none" fill-rule="evenodd">
        <g id="Style-Guide-Appunto" transform="translate(-1258.000000, -4751.000000)" fill-rule="nonzero">
            <g id="icon_estetica_86x86" transform="translate(1258.000000, 4751.000000)">
                <g id="hair" transform="translate(14.000000, 14.000000)">
                    <path d="M55.5179348,44.3918525 L55.5906015,44.3191858 L13.0967185,1.8250785 L8.25384042,1.81072458 L8.25384042,1.81072458 C7.86426606,2.20029894 1.4595021,8.6050629 0.24996006,9.81438066 C-0.08343216,10.147885 -0.08343216,10.6881755 0.24996006,11.0215678 C0.4166001,11.1882078 0.63504882,11.2715278 0.85349754,11.2715278 C1.07194626,11.2715278 1.29039498,11.1882078 1.45703502,11.0215678 L7.6501908,4.82841198 L7.6501908,4.82841198 L7.6501908,4.82841198 L8.87173182,6.049953 L2.67857604,12.2431088 C2.34518382,12.5766131 2.34518382,13.1169037 2.67857604,13.4502959 C2.84521608,13.6169359 3.0636648,13.7002559 3.28211352,13.7002559 C3.50056224,13.7002559 3.71901096,13.6169359 3.885651,13.4502959 L10.0788068,7.2571401 L11.3003478,8.47868112 L5.10719202,14.6718369 C4.7737998,15.0053413 4.7737998,15.5456318 5.10719202,15.879024 C5.27383206,16.045664 5.49228078,16.1289841 5.7107295,16.1289841 C5.92917822,16.1289841 6.14762694,16.045664 6.31426698,15.879024 L12.5074228,9.68586822 L13.7289638,10.9074092 L7.53569586,17.1002286 C7.20230364,17.433733 7.20230364,17.9740235 7.53569586,18.3074157 C7.7023359,18.4740557 7.92078462,18.5573758 8.13923334,18.5573758 C8.35768206,18.5573758 8.57613078,18.4740557 8.74277082,18.3074157 L14.9359266,12.1142599 L16.1574676,13.3358009 L9.96442398,19.5288446 C9.63103176,19.8623489 9.63103176,20.4026395 9.96442398,20.7360317 C10.131064,20.9026717 10.3495127,20.9859917 10.5679615,20.9859917 C10.7864102,20.9859917 11.0048589,20.9026717 11.1714989,20.7360317 L17.3646547,14.5428759 L18.5861957,15.7644169 L12.39304,21.9574606 C12.0596477,22.2909649 12.0596477,22.8312554 12.39304,23.1646477 C12.55968,23.3312877 12.7781287,23.4146077 12.9965774,23.4146077 C13.2150262,23.4146077 13.4334749,23.3312877 13.6001149,23.1646477 L19.7932707,16.971604 L21.0148117,18.193145 L14.8216559,24.3861887 C14.4882637,24.719693 14.4882637,25.2599836 14.8216559,25.5933758 C14.988296,25.7600158 15.2067447,25.8433358 15.4251934,25.8433358 C15.6436421,25.8433358 15.8620909,25.7600158 16.0287309,25.5933758 L22.2218867,19.4003321 L23.4434277,20.6218732 L17.2503841,26.8150289 C16.9169918,27.1485333 16.9169918,27.6888238 17.2503841,28.022216 C17.4170241,28.1888561 17.6354728,28.2721761 17.8539215,28.2721761 C18.0723703,28.2721761 18.290819,28.1888561 18.457459,28.022216 L24.6506148,21.8290603 L35.5866197,32.7650652 L29.393464,38.958221 C29.0600717,39.2917253 29.0600717,39.8320159 29.393464,40.1654081 C29.5602161,40.3320481 29.7786649,40.4153681 29.9971136,40.4153681 C30.2155623,40.4153681 30.434011,40.3320481 30.6007632,40.1654081 L36.793919,33.9722523 L38.01546,35.1937933 L31.8224164,41.386837 C31.4890241,41.7203413 31.4890241,42.2606318 31.8224164,42.5940241 C31.9891685,42.7606641 32.2076173,42.8439841 32.426066,42.8439841 C32.6445147,42.8439841 32.8629634,42.7606641 33.0297156,42.5940241 L39.2227592,36.4009804 L40.4441881,37.6224093 L34.2511445,43.8154529 C33.9177523,44.1489573 33.9177523,44.6892478 34.2511445,45.02264 C34.4178967,45.1892801 34.6363454,45.2726001 34.8547941,45.2726001 C35.0732428,45.2726001 35.2916915,45.1892801 35.4584437,45.02264 L41.6514874,38.8295964 L42.8730284,40.0511374 L36.6798726,46.2442932 C36.3464804,46.5777976 36.3464804,47.1180881 36.6798726,47.4514803 C36.8466248,47.6181203 37.0650735,47.7014404 37.2835222,47.7014404 C37.5019709,47.7014404 37.7204197,47.6181203 37.8871718,47.4514803 L44.0803276,41.2583245 L45.3017565,42.4797534 L39.1086007,48.6729092 C38.7752085,49.0064135 38.7752085,49.5467041 39.1086007,49.8800963 C39.2753529,50.0467363 39.4938016,50.1300563 39.7122503,50.1300563 C39.9305869,50.1300563 40.1491478,50.0467363 40.3159,49.8800963 L46.5090557,43.6869405 L47.7304846,44.9083694 L41.5373288,51.1015252 C41.2039366,51.4350295 41.2039366,51.97532 41.5373288,52.3087123 C41.704081,52.4753523 41.9225297,52.5586723 42.1409785,52.5586723 C42.3594272,52.5586723 42.5778759,52.4753523 42.7446281,52.3087123 L48.9377839,46.1155565 L50.1592127,47.3369854 L55.0022029,48.5586385 C56.1314527,47.4283795 56.3033633,45.7033298 55.5179348,44.3918525 Z" id="Path" fill="#F87196"></path>
                    <path d="M55.5473155,43.0687127 L14.2892152,1.81061244 C12.6252819,0.14667912 9.9176616,0.14679126 8.25384042,1.81072458 L50.7766556,44.3336519 C50.7812533,44.3382496 50.7857389,44.3428474 50.7903367,44.3474451 C51.4417579,45.0086225 51.4145079,46.0809052 50.7581525,46.7373728 L43.9654963,53.530029 C43.632104,53.8635334 43.632104,54.4038239 43.9654963,54.7372161 C44.1322484,54.9038561 44.3506972,54.9871762 44.5691459,54.9871762 C44.7875946,54.9871762 45.0060433,54.9038561 45.1727955,54.7372161 L51.3659513,48.5440603 L52.5873802,49.7654892 L46.3942244,55.958645 C46.0608322,56.2921493 46.0608322,56.8324399 46.3942244,57.1658321 C46.5609766,57.3324721 46.7794253,57.4157921 46.997874,57.4157921 C47.2163227,57.4157921 47.4347714,57.3324721 47.6015236,57.1658321 L55.6051797,49.1619517 C56.428063,48.3389563 56.8735952,47.2393114 56.8545314,46.072719 C56.8360283,44.9415628 56.3472101,43.8687194 55.5473155,43.0687127 Z" id="Path" fill="#F6628A"></path>
                    <path d="M56.9061158,0.50945202 L56.9061158,0.50945202 C56.9060037,0.50945202 56.9060037,0.50945202 56.9061158,0.50945202 L56.9052187,0.510237 L15.5719847,33.4901624 C15.5719847,33.4901624 13.9353014,34.9237602 12.9924283,35.7771456 C10.4359727,32.6219746 5.7118509,32.3867048 2.85519654,35.2427985 C0.18648882,37.9108334 0.18637668,42.2291205 2.85519654,44.8971554 C5.5313055,47.5725915 9.90633546,47.5659752 12.5704454,44.8353662 L23.8712418,41.8948312 C23.8797644,41.901896 23.8756153,41.8983075 23.8712418,41.8948312 C35.2827203,29.1999103 46.3777398,16.1625139 57.0361982,2.82334878 C57.5883756,2.13211782 57.531857,1.13508108 56.9061158,0.50945202 Z M10.0975342,42.4836783 C8.76632022,43.8144437 6.60033612,43.8144437 5.26923432,42.4836783 C3.9349926,41.149773 3.93488046,38.9905173 5.26923432,37.6563877 C6.60022398,36.3256223 8.76632022,36.3253981 10.0975342,37.6563877 C11.428636,38.9872652 11.428636,41.1528008 10.0975342,42.4836783 Z" id="Shape" fill="#FE6B93"></path>
                    <path d="M21.6341609,44.4309894 C22.3981708,43.5869116 23.1100355,42.7416003 23.8711297,41.8949433 C23.5519792,41.626368 23.2699471,41.3793236 22.9245559,41.1540343 C21.9764122,40.5356944 21.3653614,39.5180239 21.2332604,38.3940446 C21.2313541,38.3775601 21.2292234,38.3609633 21.227317,38.3442545 C21.0796286,37.1316847 21.4901732,35.9174327 22.3542119,35.0536183 L56.9060037,0.50945202 C56.2801504,-0.11617704 55.2830015,-0.17258346 54.5916584,0.37970604 C42.1403056,10.3260755 29.9644808,20.6084164 18.0736038,31.2113655 C18.0732674,31.2117019 18.0728188,31.2120383 18.0724824,31.2123748 C17.223134,31.9697683 16.4185295,32.7295168 15.5719847,33.4901624 C15.5862265,33.5070956 15.557855,33.4731172 15.5719847,33.4901624 C17.7095974,36.0638876 17.5033719,39.903449 15.13733,42.2689302 L12.5702212,44.8354784 C12.5502602,44.8558879 12.5317571,44.8769702 12.5114598,44.8972675 C12.5110112,44.8977161 12.5104505,44.8981646 12.510002,44.8987253 L12.510002,44.9097151 L12.5116753,44.9113972 L12.5116753,44.9113972 C11.0974865,46.3252583 10.3800148,48.2500292 10.5316281,50.2695585 C10.6390582,51.6995678 11.2041317,53.0667787 12.1346694,54.1579009 C13.5021046,55.7607179 15.4209321,56.5620703 17.3398718,56.5620703 C19.0883587,56.5620703 20.8370698,55.8967437 22.1681716,54.565754 L22.1681716,54.565754 C23.4577816,53.2763683 24.1680764,51.561972 24.1680764,49.7384635 C24.1680764,47.9150671 23.4577816,46.2006707 22.1681716,44.911285 C21.9976067,44.7407201 21.8190798,44.5810327 21.6341609,44.4309894 Z M14.925834,52.1523891 C12.795959,50.0227384 14.2860753,46.3253704 17.3398718,46.3253704 C19.2267394,46.3253704 20.7539741,47.8519322 20.7539741,49.7387999 C20.7541984,52.7567116 17.0784734,54.3043557 14.925834,52.1523891 Z" id="Shape" fill="#FB5582"></path>
                </g>
            </g>
        </g>
    </g>
</svg>