<?xml version="1.0" encoding="UTF-8"?>
<svg width="86px" height="86px" viewBox="0 0 86 86" version="1.1" xmlns="http://www.w3.org/2000/svg" xmlns:xlink="http://www.w3.org/1999/xlink">
    <title>89299882-A0F1-4644-A16C-0B1191AB2EDE</title>
    <defs>
        <rect id="path-1" x="0" y="0" width="40.7" height="69.3"></rect>
        <linearGradient x1="54.4074565%" y1="12.5376424%" x2="50%" y2="62.3374815%" id="linearGradient-3">
            <stop stop-color="#FFF0E9" offset="0%"></stop>
            <stop stop-color="#FFBFA2" offset="100%"></stop>
        </linearGradient>
    </defs>
    <g id="Style-Guide" stroke="none" stroke-width="1" fill="none" fill-rule="evenodd">
        <g id="Style-Guide-Appunto" transform="translate(-1486.000000, -4751.000000)">
            <g id="icon_tattoo_86x86" transform="translate(1486.000000, 4751.000000)">
                <g id="Group-14" transform="translate(24.000000, 7.000000)">
                    <g id="tattoo-2">
                        <mask id="mask-2" fill="white">
                            <use xlink:href="#path-1"></use>
                        </mask>
                        <g id="Mask"></g>
                        <g mask="url(#mask-2)" fill-rule="nonzero">
                            <g transform="translate(18.000000, 43.700000) rotate(-90.000000) translate(-18.000000, -43.700000) translate(-23.000000, 25.700000)">
                                <path d="M81.972,18.1567575 C81.972,16.2212897 80.4030047,14.6521343 78.4675369,14.6521343 L77.2025745,14.6521343 C79.1380422,14.6521343 80.7071977,13.083139 80.7071977,11.1476712 C80.7071977,9.21220343 79.1382023,7.64320812 77.2027346,7.64320812 L68.342554,7.64320812 L68.342554,4.13874502 C68.342554,2.20327723 66.7735587,0.634281914 64.8380909,0.634281914 L59.7050747,0.634281914 C55.3126883,0.634281914 51.2976613,2.25050719 48.2224305,4.92052095 C47.0234299,5.9615013 45.4736468,6.50872845 43.8859196,6.50888855 L27.9892754,6.50920875 L27.6814001,7.04250705 C27.3009987,7.70148509 29.594996,6.88928986 28.936018,6.50888855 L17.5686595,6.50920875 L11.2455275,10.4078419 C10.1289792,12.3418688 12.6686719,18.15 14.4554146,18.3359112 C14.1075139,16.1300318 15.92146,13.8746811 17.0381684,11.9406543 L17.9230497,10.4078419 C18.7397278,10.5756283 19.6066778,10.2162003 20.0463166,9.4545972 C20.4859555,8.69299406 20.363798,7.76248378 19.8103269,7.1392084 L20.1742378,6.50904865 L1.01760553,6.50920875 C0.455649047,6.50920875 0,6.9648578 0,7.52681428 L0,28.7865407 C0,29.3484971 0.455649047,29.8041462 1.01760553,29.8041462 L43.8857595,29.8049467 C45.4736468,29.8049467 47.0232698,30.3521738 48.2222704,31.3933143 C51.2975012,34.0633281 55.3125282,35.6795533 59.7049146,35.6795533 L73.9603577,35.6795533 C75.8958255,35.6795533 77.4648208,34.110558 77.4648208,32.1750902 C77.4648208,30.2396224 75.8958255,28.6706271 73.9601976,28.6706271 L77.4648208,28.6706271 C79.4002886,28.6706271 80.9692839,27.1016318 80.9692839,25.166164 C80.9692839,23.2306962 79.4002886,21.6617009 77.4646607,21.6617009 L78.4672167,21.6617009 C80.4030047,21.6612206 81.972,20.0922253 81.972,18.1567575 Z" id="Path" fill="url(#linearGradient-3)"></path>
                                <path d="M68.711428,7.64304802 C67.7487373,8.50519493 67.1416322,9.75654874 67.1416322,11.1475111 C67.1416322,12.8694034 68.0713419,14.3783606 69.4550997,15.198561 C68.7996439,16.0072339 68.4064345,17.0368471 68.4064345,18.1567575 C68.4064345,18.9599871 68.6088029,19.7169472 68.965189,20.3792874 C69.2311177,20.8733608 69.1257708,21.4838281 68.7343225,21.8860032 C67.908999,22.7340612 67.399876,23.8915955 67.399876,25.1656837 C67.399876,25.5638563 67.4496676,25.9505016 67.5431669,26.320016 C67.7024679,26.9488949 67.3665749,27.5885007 66.7695561,27.8425819 C65.3201567,28.4592931 64.2426732,29.7823724 63.9692197,31.373942 C63.8603506,32.007624 63.3227296,32.4772019 62.6797617,32.4772019 L53.300692,32.4772019 C51.7582735,32.4772019 50.2626047,32.2770749 48.8375407,31.9029176 C51.8242354,34.2672975 55.5995903,35.6792331 59.7047545,35.6792331 L65.4704921,35.6792331 L67.990971,35.6792331 L73.9600375,35.6792331 C75.8955053,35.6792331 77.4645006,34.1102378 77.4645006,32.17477 L77.4645006,32.17477 C77.4645006,30.2393022 75.8955053,28.6703069 73.9598774,28.6703069 L77.3804473,28.6703069 C79.2806927,28.6703069 80.8991594,27.1925695 80.9667223,25.2936049 C81.0376473,23.2998601 79.4423953,21.6612206 77.4645006,21.6612206 L78.4670566,21.6612206 C80.4025244,21.6612206 81.9715197,20.0922253 81.9715197,18.1567575 L81.9715197,18.1567575 C81.9715197,16.2212897 80.4025244,14.6522944 78.4670566,14.6522944 L77.2020941,14.6522944 C79.1375619,14.6522944 80.7067174,13.0832991 80.7067174,11.1478313 L80.7067174,11.1478313 C80.7067174,9.21236353 79.137722,7.64336822 77.2022543,7.64336822 L68.711428,7.64304802 Z" id="Shape" fill="#FBA178"></path>
                                <path d="M42.508726,28.7604441 C40.9980076,27.5782542 38.1991121,26.6029155 36.2807752,26.6027554 L0,26.602275 L0,28.7865407 C0,29.3484971 0.455649047,29.8041462 1.01760553,29.8041462 L43.8857595,29.8049467 C43.9238637,29.8049467 43.9616476,29.8067078 43.9997518,29.8073482 C43.4840647,29.483783 42.986469,29.1342813 42.508726,28.7604441 Z" id="Path" fill="#FBA178"></path>
                                <path d="M67.8617591,13.255885 C67.8617591,14.5262909 66.1081766,18.2904423 64.8377707,18.2904423 C63.5673648,18.2904423 62.5339092,17.2569867 62.5339092,15.9865808 L62.5339092,8.18531201 C62.5339092,7.52217134 61.9964483,6.98455029 61.3331475,6.98455029 C60.6698467,6.98455029 60.1323858,7.52217134 60.1323858,8.18531201 C60.1323858,10.1228611 58.5560258,11.699061 56.6186368,11.699061 C54.6812478,11.699061 53.1050479,10.122701 53.1050479,8.18531201 C53.1050479,7.52217134 52.5675869,6.98455029 51.9042862,6.98455029 C51.2409854,6.98455029 50.7035244,7.52217134 50.7035244,8.18531201 C50.7035244,11.4470611 53.3570477,14.1005844 56.6186368,14.1005844 C57.9333908,14.1005844 59.1493622,13.6694309 60.1323858,12.9411289 L60.1323858,15.9864207 C60.1323858,18.5810267 62.2433249,20.6918057 64.8377707,20.6918057 C67.4322165,20.6918057 69.6073563,17.2469003 69.6073563,14.6522944 L67.8617591,13.255885 Z" id="Path" fill="#FFA67D"></path>
                                <path d="M77.2025745,14.6521343 L71.846857,14.6521343 C69.9113892,14.6521343 68.3423939,13.083139 68.3423939,11.1476712 L68.3423939,11.1476712 C68.3423939,9.21220343 69.9113892,7.64320812 71.846857,7.64320812 L77.2025745,7.64320812 C79.1380422,7.64320812 80.7070376,9.21220343 80.7070376,11.1476712 L80.7070376,11.1476712 C80.7070376,13.083139 79.1380422,14.6521343 77.2025745,14.6521343 Z" id="Path" fill="#FFCAB2"></path>
                                <path d="M77.4611385,28.6703069 L72.105421,28.6703069 C70.1699532,28.6703069 68.6009579,27.1013116 68.6009579,25.1658438 L68.6009579,25.1658438 C68.6009579,23.230376 70.1699532,21.6613807 72.105421,21.6613807 L77.4611385,21.6613807 C79.3966063,21.6613807 80.9656016,23.230376 80.9656016,25.1658438 L80.9656016,25.1658438 C80.9656016,27.1013116 79.3966063,28.6703069 77.4611385,28.6703069 Z" id="Path" fill="#FFCAB2"></path>
                                <path d="M73.9617986,35.6793932 L68.6060812,35.6793932 C66.6706134,35.6793932 65.1016181,34.1103979 65.1016181,32.1749301 L65.1016181,32.1749301 C65.1016181,30.2394623 66.6706134,28.670467 68.6060812,28.670467 L73.9617986,28.670467 C75.8972664,28.670467 77.4662617,30.2394623 77.4662617,32.1749301 L77.4662617,32.1749301 C77.4662617,34.1103979 75.8972664,35.6793932 73.9617986,35.6793932 Z" id="Path" fill="#FFCAB2"></path>
                                <path d="M78.4675369,21.6612206 L73.1118194,21.6612206 C71.1763516,21.6612206 69.6073563,20.0922253 69.6073563,18.1567575 L69.6073563,18.1567575 C69.6073563,16.2212897 71.1763516,14.6522944 73.1118194,14.6522944 L78.4675369,14.6522944 C80.4030047,14.6522944 81.972,16.2212897 81.972,18.1567575 L81.972,18.1567575 C81.972,20.0922253 80.4030047,21.6612206 78.4675369,21.6612206 Z" id="Path" fill="#FFCAB2"></path>
                                <path d="M78.7473944,8.00167552 C78.9766599,8.46773116 79.1060219,8.99190368 79.1060219,9.54649549 L79.1060219,9.54649549 C79.1060219,11.4819633 77.5370266,13.0509586 75.6013987,13.0509586 L70.2456813,13.0509586 C69.6910894,13.0509586 69.1669169,12.9215965 68.7008613,12.6923311 C69.2719436,13.8530674 70.4658209,14.6519742 71.8466969,14.6519742 L77.2024144,14.6519742 C79.1378821,14.6519742 80.7070376,13.0829789 80.7070376,11.1475111 L80.7070376,11.1475111 C80.7070376,9.76663514 79.9081308,8.57275779 78.7473944,8.00167552 Z" id="Path" fill="#FFA67D"></path>
                                <path d="M79.0059585,22.0198481 C79.2352239,22.4859038 79.364586,23.0100763 79.364586,23.5646681 L79.364586,23.5646681 C79.364586,25.5001359 77.7955906,27.0691312 75.8599627,27.0691312 L70.5042453,27.0691312 C69.9496535,27.0691312 69.425481,26.9397691 68.9594253,26.7105037 C69.5305076,27.87124 70.7243849,28.6701468 72.1052609,28.6701468 L77.4609784,28.6701468 C79.3964462,28.6701468 80.9656016,27.1011515 80.9656016,25.1656837 L80.9656016,25.1656837 C80.9656016,23.7848077 80.1666948,22.5909304 79.0059585,22.0198481 Z" id="Path" fill="#FFA67D"></path>
                                <path d="M75.5066186,29.0289344 C75.735884,29.4949901 75.8652461,30.0191626 75.8652461,30.5737544 C75.8652461,32.5092222 74.2962508,34.0782175 72.3606229,34.0782175 L67.0049054,34.0782175 C66.4503136,34.0782175 65.9261411,33.9488554 65.4600855,33.71959 C66.0311677,34.8803263 67.2250451,35.6792331 68.6059211,35.6792331 L73.9616385,35.6792331 C75.8971063,35.6792331 77.4662617,34.1102378 77.4662617,32.17477 C77.4662617,30.7938941 76.6671948,29.6000167 75.5066186,29.0289344 Z" id="Path" fill="#FFA67D"></path>
                                <path d="M80.0123569,15.0107618 C80.2416223,15.4768175 80.3709844,16.00099 80.3709844,16.5555818 L80.3709844,16.5555818 C80.3709844,18.4910496 78.8019891,20.0600449 76.8665213,20.0600449 L71.5108038,20.0600449 C70.956212,20.0600449 70.4320395,19.9306828 69.9659838,19.7014174 C70.5370661,20.8621537 71.7309435,21.6610605 73.1118194,21.6610605 L78.4675369,21.6610605 C80.4030047,21.6610605 81.972,20.0920652 81.972,18.1565974 L81.972,18.1565974 C81.972,16.7757214 81.1729331,15.5818441 80.0123569,15.0107618 Z" id="Path" fill="#FFA67D"></path>
                            </g>
                        </g>
                    </g>
                    <g id="Group-4" transform="translate(9.000000, 49.000000)" fill="#FF6E2C">
                        <path d="M1.43846869,12.5318507 C1.45310869,12.5424107 1.46770069,12.5529707 1.48229269,12.5635307 C1.52837269,12.5331467 1.57637269,12.5053067 1.62024469,12.4720907 C2.40989269,11.8738187 3.19838869,11.2739147 3.98875669,10.6765547 C4.26926869,10.4644907 4.42358869,10.4783147 4.67798869,10.7276267 C5.19744469,11.2368107 5.71613269,11.7466187 6.23702869,12.2542187 C6.27710869,12.2931947 6.30336469,12.3610667 6.39653269,12.3511307 C5.70168469,10.1932427 5.00918869,8.04274674 4.29874069,5.83647474 C3.32995669,8.10413874 2.38421269,10.3179947 1.43846869,12.5318507 M7.29749269,14.3084747 C7.14734869,14.3195627 7.04885269,14.2124267 6.94541269,14.1104267 C6.13176469,13.3082507 5.31360469,12.5107307 4.50619669,11.7023627 C4.34549269,11.5414187 4.24118869,11.5060427 4.03973269,11.6620907 C2.94773269,12.5082827 1.84147669,13.3360427 0.739828688,14.1697067 C0.506212688,14.3464907 0.324340688,14.3634347 0.153076688,14.2275947 C-0.0173233116,14.0924747 -0.0447313116,13.9035467 0.0672046884,13.6416587 C1.35379669,10.6322507 2.64134869,7.62317874 3.92472469,4.61237874 C4.01386069,4.40329074 4.12915669,4.24561074 4.37606869,4.25746674 C4.61347669,4.26889074 4.70942869,4.43228274 4.77595669,4.63959474 C5.74704469,7.66345074 6.72240469,10.6859147 7.69512469,13.7092427 C7.80605269,14.0541227 7.63291669,14.3181707 7.29749269,14.3084747" id="Fill-1"></path>
                        <path d="M13.4019551,14.3124491 C12.0353471,14.3125451 11.1499391,13.4150891 11.1374111,12.0400811 C11.1302591,11.2490411 11.3258111,10.5420971 11.9633951,10.0353611 C12.6755231,9.46929714 13.4947871,9.39801714 14.3175551,9.71889714 C15.1188671,10.0313771 15.5481791,10.6693451 15.6592991,11.5262891 C15.7136831,11.9458571 15.6901151,12.3569291 15.5781311,12.7610891 C15.3023711,13.7563211 14.5169951,14.3124011 13.4019551,14.3124491" id="Fill-3"></path>
                        <path d="M11.6213135,0.0094283396 C12.2042735,0.0069323396 12.7872335,-0.0013236604 13.3700975,0.0039563396 C13.7792975,0.0076523396 14.0174255,0.25811634 14.0176655,0.67120434 C14.0188655,2.94107634 14.0189615,5.21090034 14.0175215,7.48077234 C14.0172815,7.86213234 13.7861615,8.11350834 13.4305775,8.13208434 C13.1008175,8.14931634 12.8213135,7.91248434 12.7999535,7.54792434 C12.7766255,7.15005234 12.7964975,6.74968434 12.7965455,6.35042034 C12.7967855,4.71995634 12.7935215,3.08944434 12.8008175,1.45902834 C12.8017295,1.26765234 12.7452335,1.21384434 12.5584175,1.22056434 C12.2480495,1.23174834 11.9365295,1.21523634 11.6255375,1.21043634 C11.6241455,0.81006834 11.6227055,0.40974834 11.6213135,0.0094283396" id="Fill-5"></path>
                        <path d="M11.6213135,0.0094283396 C11.6227055,0.40974834 11.6241455,0.81006834 11.6255375,1.21043634 C11.3890895,1.25469234 11.1503855,1.22882034 10.9130255,1.22829234 C9.99915349,1.22618034 9.08528149,1.21710834 8.17140949,1.21062834 L8.16790549,0.0093323396 C9.31899349,0.0093803396 10.4701775,0.0094283396 11.6213135,0.0094283396" id="Fill-7"></path>
                        <path d="M5.24636149,1.21364754 C5.10658549,1.23375954 5.08162549,1.32121554 5.08368949,1.44999954 C5.09084149,1.89702354 5.08752949,2.34423954 5.08608949,2.79135954 C5.08474549,3.20886354 4.83106549,3.49259154 4.46338549,3.49149075 C4.10818549,3.49038354 3.85738549,3.20804754 3.85647349,2.80244754 C3.85488949,2.09180754 3.85445749,1.38116754 3.85661749,0.67052754 C3.85786549,0.25388754 4.09176949,0.0099035396 4.50173749,0.0015035396 C4.74874549,-0.0035364604 4.99594549,0.0054875396 5.24309749,0.0081755396 C5.24420149,0.40998354 5.24530549,0.81183954 5.24636149,1.21364754" id="Fill-9"></path>
                        <path d="M8.16789109,0.0093371396 L8.17139509,1.21063314 C7.62822709,1.24576914 7.08505909,1.23602514 6.54189109,1.20962514 C6.54049909,0.80973714 6.53901109,0.40980114 6.53761909,0.0098651396 C7.08102709,0.0097211396 7.62448309,0.0095291396 8.16789109,0.0093371396" id="Fill-11"></path>
                        <path d="M6.53762869,0.0098747396 C6.53902069,0.40981074 6.54050869,0.80974674 6.54190069,1.20963474 C6.11023669,1.25173074 5.67833269,1.23584274 5.24638069,1.21371474 C5.24527669,0.81185874 5.24422069,0.41000274 5.24306869,0.0081467396 C5.67463669,0.0087227396 6.10610869,0.0092987396 6.53762869,0.0098747396" id="Fill-13"></path>
                    </g>
                </g>
            </g>
        </g>
    </g>
</svg>