<?xml version="1.0" encoding="UTF-8"?>
<svg width="86px" height="86px" viewBox="0 0 86 86" version="1.1" xmlns="http://www.w3.org/2000/svg" xmlns:xlink="http://www.w3.org/1999/xlink">
    <title>0D36CB0B-C24E-4506-B342-A01F4C5D2403</title>
    <defs>
        <linearGradient x1="-34.8684089%" y1="100%" x2="50%" y2="100%" id="linearGradient-1">
            <stop stop-color="#B6B6B6" offset="0%"></stop>
            <stop stop-color="#858585" offset="100%"></stop>
        </linearGradient>
        <linearGradient x1="-34.8684089%" y1="100%" x2="50%" y2="100%" id="linearGradient-2">
            <stop stop-color="#B6B6B6" offset="0%"></stop>
            <stop stop-color="#858585" offset="100%"></stop>
        </linearGradient>
        <linearGradient x1="-40.5789209%" y1="6.88782056%" x2="78.1192115%" y2="83.7230991%" id="linearGradient-3">
            <stop stop-color="#D9D9D9" offset="0%"></stop>
            <stop stop-color="#8E8E8E" offset="100%"></stop>
        </linearGradient>
    </defs>
    <g id="Style-Guide" stroke="none" stroke-width="1" fill="none" fill-rule="evenodd">
        <g id="Style-Guide-Appunto" transform="translate(-1372.000000, -4751.000000)" fill-rule="nonzero">
            <g id="icon_barber_86x86" transform="translate(1372.000000, 4751.000000)">
                <g id="barbershop" transform="translate(32.000000, 7.000000)">
                    <rect id="Rectangle" fill="url(#linearGradient-1)" x="1.2323304" y="14.8149932" width="19.754056" height="9.8768908"></rect>
                    <g id="Group" transform="translate(0.000000, 0.548800)">
                        <rect id="Rectangle" fill="#5F5D5D" x="1.2323304" y="24.1432212" width="19.754056" height="6.5846396"></rect>
                        <rect id="Rectangle" fill="#6F6F6F" x="0.1345932" y="0.0001372" width="21.949256" height="14.266056"></rect>
                        <path d="M16.5946144,66.94331 C14.171388,66.94331 12.2049004,64.9766852 12.2049004,62.553596 L10.0099748,62.553596 C10.0099748,66.1899448 12.9582656,69.1380984 16.5946144,69.1380984 L21.4426058,69.1380984 C22.0486799,69.1380984 22.54,68.6467783 22.54,68.0407042 C22.54,67.4346301 22.0486799,66.94331 21.4426058,66.94331 L16.5946144,66.94331 L16.5946144,66.94331 Z" id="Path" fill="#6D6A6A"></path>
                        <path d="M11.1074376,60.3586704 C10.501288,60.3586704 10.0099748,60.849572 10.0099748,61.4562704 L10.0099748,62.553596 L12.2049004,62.553596 L12.2049004,61.4562704 C12.2047632,60.849572 11.7135872,60.3586704 11.1074376,60.3586704 Z" id="Path" fill="#6D6A6A"></path>
                    </g>
                    <path d="M11.1089468,60.9074704 C10.5274932,60.9074704 8.9140212,60.9074704 8.9140212,60.9074704 L7.8165584,60.9074704 C3.4268444,60.9074704 1.2319188,48.8357912 1.2319188,32.3742608 L1.2319188,31.276798 L3.4268444,31.276798 L18.7910492,31.276798 L20.9859748,31.276798 L20.9859748,32.3742608 C20.9859748,48.835654 18.7910492,60.9074704 14.401198,60.9074704 L13.3037352,60.9074704 L11.1089468,60.9074704 Z M14.401198,37.8614376 C14.401198,35.6666492 14.401198,35.6666492 11.1088096,35.6666492 C7.8165584,35.6666492 7.8165584,35.6666492 7.8165584,37.8614376 C7.8165584,40.056226 8.9140212,43.3484772 10.011484,43.3484772 C11.1089468,43.3484772 11.1089468,43.3484772 12.2064096,43.3484772 C13.3038724,43.3484772 14.401198,40.056226 14.401198,37.8614376 Z" id="Shape" fill="url(#linearGradient-2)"></path>
                    <rect id="Rectangle" fill="#B2B2B2" x="1.2323304" y="14.8149932" width="2.1949256" height="9.8768908"></rect>
                    <rect id="Rectangle" fill="#6F6F6F" x="18.7911864" y="14.8149932" width="2.1949256" height="9.8768908"></rect>
                    <path d="M3.4271188,32.3742608 L3.4271188,31.276798 L1.232056,31.276798 L1.232056,32.3742608 C1.232056,48.835654 3.4269816,60.9074704 7.8166956,60.9074704 L8.9141584,60.9074704 L10.0116212,60.9074704 C5.6219072,60.9074704 3.4271188,48.835654 3.4271188,32.3742608 Z" id="Path" fill="#B2B2B2"></path>
                    <path d="M18.78954,32.3742608 L18.78954,31.276798 L20.9839168,31.276798 L20.9839168,32.3742608 C20.9839168,48.835654 18.78954,60.9074704 14.3996888,60.9074704 L13.302226,60.9074704 L12.2047632,60.9074704 C16.5946144,60.9074704 18.78954,48.835654 18.78954,32.3742608 Z" id="Path" fill="#6F6F6F"></path>
                    <path d="M14.401198,37.8614376 C14.401198,40.056226 13.3037352,43.3484772 12.2062724,43.3484772 C11.1088096,43.3484772 11.1088096,43.3484772 10.0113468,43.3484772 C8.913884,43.3484772 7.8164212,40.056226 7.8164212,37.8614376 C7.8164212,35.6666492 7.8164212,35.6666492 11.1086724,35.6666492 C14.401198,35.6666492 14.401198,35.6666492 14.401198,37.8614376 Z" id="Path" fill="#5F5D5D"></path>
                    <path d="M8.9140212,37.8614376 C8.9140212,35.796166 8.9162164,35.674058 11.6576096,35.6666492 C11.485012,35.6666492 11.303908,35.6666492 11.1088096,35.6666492 C7.8165584,35.6666492 7.8165584,35.6666492 7.8165584,37.8614376 C7.8165584,40.056226 8.9140212,43.3484772 10.011484,43.3484772 C10.5601468,43.3484772 10.8345468,43.3484772 11.1089468,43.3484772 C10.0116212,43.3484772 8.9140212,40.056226 8.9140212,37.8614376 Z" id="Path" fill="#898989"></path>
                    <path d="M13.3038724,37.8614376 C13.3038724,35.796166 13.3016772,35.674058 10.560284,35.6666492 C10.7328816,35.6666492 10.9139856,35.6666492 11.109084,35.6666492 C14.4014724,35.6666492 14.4014724,35.6666492 14.4014724,37.8614376 C14.4014724,40.056226 13.3040096,43.3484772 12.2065468,43.3484772 C11.6577468,43.3484772 11.3833468,43.3484772 11.109084,43.3484772 C12.2065468,43.3484772 13.3038724,40.056226 13.3038724,37.8614376 Z" id="Path" fill="#4B4B4B"></path>
                    <path d="M2.329656,3.8410512 L2.329656,6.0359768 C2.329656,6.0359768 2.329656,21.4000444 11.109084,21.4000444 C19.888512,21.4000444 19.888512,6.0359768 19.888512,6.0359768 L19.888512,3.8410512 L2.329656,3.8410512 Z" id="Path" fill="url(#linearGradient-3)"></path>
                    <g id="Group" transform="translate(0.000000, 0.548800)">
                        <path d="M17.6935864,5.4870396 L17.6935864,3.2922512 L19.888512,3.2922512 L19.888512,5.4871768 C19.888512,5.4871768 19.888512,20.8512444 11.109084,20.8512444 C10.724924,20.8512444 10.3631276,20.8115936 10.0116212,20.7558904 C17.6876868,19.5254808 17.6935864,5.4870396 17.6935864,5.4870396 Z" id="Path" fill="#7F7F7F"></path>
                        <rect id="Rectangle" fill="#9A9A9A" x="0.1345932" y="0.0001372" width="21.949256" height="1.0974628"></rect>
                        <rect id="Rectangle" fill="#9A9A9A" x="0.1345932" y="1.0977372" width="1.0974628" height="13.168456"></rect>
                    </g>
                    <rect id="Rectangle" fill="#6F6F6F" x="20.9863864" y="1.6465372" width="1.0973256" height="13.168456"></rect>
                    <rect id="Rectangle" fill="#898989" x="1.2323304" y="24.6920212" width="2.1949256" height="6.5846396"></rect>
                    <rect id="Rectangle" fill="#4B4B4B" x="18.7911864" y="24.6920212" width="2.1949256" height="6.5846396"></rect>
                    <g id="Group" transform="translate(1.646400, 0.000000)" fill="#353535">
                        <path d="M0.683256,2.1949256 C0.380044,2.1949256 0.134456,1.9494748 0.134456,1.6461256 L0.134456,0.5488 C0.134456,0.245588 0.3799068,0 0.683256,0 C0.9866052,0 1.232056,0.2454508 1.232056,0.5488 L1.232056,1.6462628 C1.2319188,1.9494748 0.9863308,2.1949256 0.683256,2.1949256 Z" id="Path"></path>
                        <path d="M2.8780444,2.1949256 C2.5748324,2.1949256 2.3293816,1.9494748 2.3293816,1.6461256 L2.3293816,0.5488 C2.3293816,0.245588 2.5748324,0 2.8780444,0 C3.1813936,0 3.4268444,0.2454508 3.4268444,0.5488 L3.4268444,1.6462628 C3.4268444,1.9494748 3.1813936,2.1949256 2.8780444,2.1949256 Z" id="Path"></path>
                        <path d="M5.07297,2.1949256 C4.769758,2.1949256 4.52417,1.9494748 4.52417,1.6461256 L4.52417,0.5488 C4.52417,0.245588 4.7696208,0 5.07297,0 C5.3763192,0 5.62177,0.2454508 5.62177,0.5488 L5.62177,1.6462628 C5.6214956,1.9494748 5.376182,2.1949256 5.07297,2.1949256 Z" id="Path"></path>
                        <path d="M7.2676212,2.1949256 C6.9644092,2.1949256 6.7189584,1.9494748 6.7189584,1.6461256 L6.7189584,0.5488 C6.7189584,0.245588 6.9644092,0 7.2676212,0 C7.5709704,0 7.8164212,0.2454508 7.8164212,0.5488 L7.8164212,1.6462628 C7.8164212,1.9494748 7.5709704,2.1949256 7.2676212,2.1949256 Z" id="Path"></path>
                        <path d="M9.4625468,2.1949256 C9.1593348,2.1949256 8.9137468,1.9494748 8.9137468,1.6461256 L8.9137468,0.5488 C8.9137468,0.245588 9.1591976,0 9.4625468,0 C9.765896,0 10.0113468,0.2454508 10.0113468,0.5488 L10.0113468,1.6462628 C10.0113468,1.9494748 9.765896,2.1949256 9.4625468,2.1949256 Z" id="Path"></path>
                        <path d="M11.6574724,2.1949256 C11.3542604,2.1949256 11.1088096,1.9494748 11.1088096,1.6461256 L11.1088096,0.5488 C11.1088096,0.245588 11.3542604,0 11.6574724,0 C11.9608216,0 12.2062724,0.2454508 12.2062724,0.5488 L12.2062724,1.6462628 C12.2062724,1.9494748 11.9608216,2.1949256 11.6574724,2.1949256 Z" id="Path"></path>
                        <path d="M13.852398,2.1949256 C13.549186,2.1949256 13.303598,1.9494748 13.303598,1.6461256 L13.303598,0.5488 C13.303598,0.245588 13.5490488,0 13.852398,0 C14.1557472,0 14.401198,0.2454508 14.401198,0.5488 L14.401198,1.6462628 C14.4010608,1.9494748 14.1554728,2.1949256 13.852398,2.1949256 Z" id="Path"></path>
                        <path d="M16.0471864,2.1949256 C15.7439744,2.1949256 15.4985236,1.9494748 15.4985236,1.6461256 L15.4985236,0.5488 C15.4985236,0.245588 15.7439744,0 16.0471864,0 C16.3505356,0 16.5959864,0.2454508 16.5959864,0.5488 L16.5959864,1.6462628 C16.5959864,1.9494748 16.3505356,2.1949256 16.0471864,2.1949256 Z" id="Path"></path>
                        <path d="M18.242112,2.1949256 C17.9387628,2.1949256 17.693312,1.9494748 17.693312,1.6461256 L17.693312,0.5488 C17.693312,0.245588 17.9387628,0 18.242112,0 C18.5454612,0 18.790912,0.2454508 18.790912,0.5488 L18.790912,1.6462628 C18.790912,1.9494748 18.5454612,2.1949256 18.242112,2.1949256 Z" id="Path"></path>
                        <path d="M1.7807188,29.6306724 C1.4775068,29.6306724 1.2319188,29.3852216 1.2319188,29.0820096 L1.2319188,26.887084 C1.2319188,26.583872 1.4773696,26.338284 1.7807188,26.338284 C2.084068,26.338284 2.3295188,26.5837348 2.3295188,26.887084 L2.3295188,29.0820096 C2.3293816,29.3852216 2.0839308,29.6306724 1.7807188,29.6306724 Z" id="Path"></path>
                        <path d="M3.9755072,29.6306724 C3.672158,29.6306724 3.4267072,29.3852216 3.4267072,29.0820096 L3.4267072,26.887084 C3.4267072,26.583872 3.672158,26.338284 3.9755072,26.338284 C4.2787192,26.338284 4.52417,26.5837348 4.52417,26.887084 L4.52417,29.0820096 C4.52417,29.3852216 4.2788564,29.6306724 3.9755072,29.6306724 Z" id="Path"></path>
                        <path d="M6.1702956,29.6306724 C5.8670836,29.6306724 5.6214956,29.3852216 5.6214956,29.0820096 L5.6214956,26.887084 C5.6214956,26.583872 5.8669464,26.338284 6.1702956,26.338284 C6.4736448,26.338284 6.7190956,26.5837348 6.7190956,26.887084 L6.7190956,29.0820096 C6.7190956,29.3852216 6.4736448,29.6306724 6.1702956,29.6306724 Z" id="Path"></path>
                        <path d="M8.3652212,29.6306724 C8.061872,29.6306724 7.8164212,29.3852216 7.8164212,29.0820096 L7.8164212,26.887084 C7.8164212,26.583872 8.061872,26.338284 8.3652212,26.338284 C8.6684332,26.338284 8.913884,26.5837348 8.913884,26.887084 L8.913884,29.0820096 C8.9137468,29.3852216 8.6685704,29.6306724 8.3652212,29.6306724 Z" id="Path"></path>
                        <path d="M10.5601468,29.6306724 C10.2569348,29.6306724 10.0113468,29.3852216 10.0113468,29.0820096 L10.0113468,26.887084 C10.0113468,26.583872 10.2567976,26.338284 10.5601468,26.338284 C10.863496,26.338284 11.1089468,26.5837348 11.1089468,26.887084 L11.1089468,29.0820096 C11.1086724,29.3852216 10.8632216,29.6306724 10.5601468,29.6306724 Z" id="Path"></path>
                        <path d="M12.754798,29.6306724 C12.4514488,29.6306724 12.205998,29.3852216 12.205998,29.0820096 L12.205998,26.887084 C12.205998,26.583872 12.4514488,26.338284 12.754798,26.338284 C13.05801,26.338284 13.3034609,26.5837348 13.3034609,26.887084 L13.3034609,29.0820096 C13.303598,29.3852216 13.0581472,29.6306724 12.754798,29.6306724 Z" id="Path"></path>
                        <path d="M14.9498608,29.6306724 C14.6466488,29.6306724 14.4010608,29.3852216 14.4010608,29.0820096 L14.4010608,26.887084 C14.4010608,26.583872 14.6465116,26.338284 14.9498608,26.338284 C15.25321,26.338284 15.4986608,26.5837348 15.4986608,26.887084 L15.4986608,29.0820096 C15.4985236,29.3852216 15.2530728,29.6306724 14.9498608,29.6306724 Z" id="Path"></path>
                        <path d="M17.1447864,29.6306724 C16.8414372,29.6306724 16.5959864,29.3852216 16.5959864,29.0820096 L16.5959864,26.887084 C16.5959864,26.583872 16.8414372,26.338284 17.1447864,26.338284 C17.4481356,26.338284 17.693312,26.5837348 17.693312,26.887084 L17.693312,29.0820096 C17.693312,29.3852216 17.4481356,29.6306724 17.1447864,29.6306724 Z" id="Path"></path>
                        <path d="M9.4625468,40.605026 C9.1593348,40.605026 8.9137468,40.3595752 8.9137468,40.056226 L8.9137468,38.9589004 C8.9137468,38.6555512 9.1591976,38.4101004 9.4625468,38.4101004 C9.765896,38.4101004 10.0113468,38.6555512 10.0113468,38.9589004 L10.0113468,40.056226 C10.0113468,40.3595752 9.765896,40.605026 9.4625468,40.605026 Z" id="Path"></path>
                    </g>
                </g>
            </g>
        </g>
    </g>
</svg>