<?xml version="1.0" encoding="UTF-8"?>
<svg width="86px" height="86px" viewBox="0 0 86 86" version="1.1" xmlns="http://www.w3.org/2000/svg" xmlns:xlink="http://www.w3.org/1999/xlink">
    <title>01D63904-CE8C-4031-BE87-E9212794F1D4</title>
    <defs>
        <linearGradient x1="43.7716263%" y1="66.9438114%" x2="62.9755888%" y2="4.82038807%" id="linearGradient-1">
            <stop stop-color="#B67BF9" offset="0%"></stop>
            <stop stop-color="#C99CFB" offset="100%"></stop>
        </linearGradient>
    </defs>
    <g id="Style-Guide" stroke="none" stroke-width="1" fill="none" fill-rule="evenodd">
        <g id="Style-Guide-Appunto" transform="translate(-1030.000000, -4751.000000)" fill-rule="nonzero">
            <g id="icon_manicure_86x86" transform="translate(1030.000000, 4751.000000)">
                <g id="Group-13" transform="translate(21.600000, 10.000000)">
                    <g id="eyeliner-copy">
                        <polygon id="Path" fill="url(#linearGradient-1)" points="16.4736 8.2368 16.4736 2.7456 10.9824 2.7456 10.9824 0 5.4912 0 5.4912 2.7456 0 2.7456 0 8.2368 5.4912 8.2368 5.4912 10.9824 0 10.9824 0 16.4736 5.4912 16.4736 5.4912 19.2192 0 19.2192 0 24.7104 5.4912 24.7104 5.4912 46.6752 10.9824 46.6752 10.9824 24.7104 16.4736 24.7104 16.4736 19.2192 10.9824 19.2192 10.9824 16.4736 16.4736 16.4736 16.4736 10.9824 10.9824 10.9824 10.9824 8.2368"></polygon>
                        <path d="M15.7872,39.3670992 C15.2658377,38.7764257 14.5158539,38.4383999 13.728,38.4383999 L2.7456,38.4383999 C1.95810917,38.4383999 1.20853886,38.776588 0.687374589,39.366952 C0.166210316,39.957316 -0.0763704635,40.7430413 0.0212784,41.5244544 L2.7668784,63.4892544 C2.93857784,64.8632407 4.10652712,65.8944 5.4912,65.8944 L10.9824,65.8944 C12.3670729,65.8944 13.5350222,64.8632407 13.7067216,63.4892544 L16.4523216,41.5244544 C16.5501906,40.7432338 16.3079733,39.9575898 15.7872,39.3670992 L15.7872,39.3670992 Z" id="Path" fill="#E5CEFF"></path>
                        <path d="M10.9824,63.1488 C9.59772712,63.1487554 8.42977784,62.1176407 8.2580784,60.7436544 L5.5124784,38.7788544 C5.49907403,38.6658731 5.49265543,38.5521721 5.4932592,38.4384 L2.7456,38.4384 C1.95810917,38.4384 1.20853886,38.776588 0.687374589,39.366952 C0.166210316,39.957316 -0.0763704635,40.7430413 0.0212784,41.5244544 L2.7668784,63.4892544 C2.93857784,64.8632407 4.10652712,65.8944 5.4912,65.8944 L10.9824,65.8944 C12.3670729,65.8944 13.5350222,64.8632407 13.7067216,63.4892544 L13.7492784,63.1488 L10.9824,63.1488 Z" id="Path" fill="#CEA0FF"></path>
                    </g>
                    <g id="eye-makeup" transform="translate(22.000000, 10.000000)">
                        <polygon id="Path" fill="#C492FC" points="3.36 23.04 18.72 23.04 18.72 32.64 3.36 32.64"></polygon>
                        <polygon id="Path" fill="#DEC2FD" points="12.96 23.04 18.72 23.04 18.72 32.64 12.96 32.64"></polygon>
                        <polygon id="Path" fill="#CEA0FF" points="1.70530257e-15 32.64 22.0917568 32.64 19.2 55.68 2.89175683 55.68"></polygon>
                        <polygon id="Path" fill="#E5CEFF" points="12.96 32.64 22.08 32.64 19.2165624 55.68 12.96 55.68"></polygon>
                        <polyline id="Path" fill="#BA81FA" points="16.8 9.6 16.8 23.04 5.28 23.04 5.28 2.88"></polyline>
                        <path d="M13.56096,3.27936 C10.71168,0.36096 7.25664,-0.83136 5.84448,0.61536 C4.43232,2.06208 5.5968,5.60064 8.44608,8.51904 C11.29536,11.43744 14.74944,12.62976 16.16256,11.18304 C17.57568,9.73632 16.41024,6.19776 13.56096,3.27936 Z" id="Path" fill="#C694FF"></path>
                    </g>
                </g>
            </g>
        </g>
    </g>
</svg>